<svg width="20" height="16" viewBox="0 0 20 16" fill="none" xmlns="http://www.w3.org/2000/svg">
    <path d="M11.1861 8.76C10.6501 8.76 10.2281 8.946 9.9181 9.318C9.6081 9.69 9.4541 10.2 9.4541 10.848C9.4541 11.476 9.6101 11.972 9.9241 12.332C10.2361 12.694 10.6581 12.874 11.1881 12.874C11.7341 12.874 12.1481 12.696 12.4341 12.344C12.7201 11.99 12.8621 11.484 12.8621 10.822C12.8621 10.158 12.7201 9.648 12.4341 9.292C12.1461 8.938 11.7301 8.76 11.1861 8.76Z"
          fill="white"/>
    <path d="M15.5501 5.646C15.5501 5.646 17.6581 5.094 19.0121 6.434C19.4901 6.052 19.8001 5.442 19.8001 4.754C19.8001 3.598 19.2281 2.562 17.6721 2.94C17.3741 1.852 16.4201 0.771999 15.1681 0.771999C14.1001 0.771999 13.2521 1.314 12.8381 2.234C13.2981 2.448 14.8981 3.342 15.5501 5.646Z"
          fill="white"/>
    <path d="M14.82 6.53399C14.178 4.134 12.132 1.748 9.44201 1.748C6.31801 1.748 4.07201 3.962 3.85601 7.49199C1.89801 7.48999 0.200012 8.96199 0.200012 11.178C0.200012 13.394 1.69401 15.228 3.53601 15.228C3.64401 15.228 15.276 15.228 15.276 15.228C17.554 15.228 19.388 13.094 19.388 10.572C19.386 8.02399 18.16 5.69599 14.82 6.53399ZM7.79001 9.18398C7.41001 8.90199 6.99401 8.75999 6.53201 8.75999C5.98601 8.75999 5.54601 8.95199 5.20401 9.33398C4.86201 9.71598 4.69201 10.228 4.69201 10.866C4.69201 11.494 4.85401 11.986 5.17801 12.34C5.50001 12.696 5.93201 12.872 6.48201 12.872C6.94601 12.872 7.41201 12.718 7.79201 12.408V13.296C7.41201 13.546 6.88801 13.67 6.30601 13.67C5.52801 13.67 4.90401 13.416 4.43001 12.91C3.95601 12.404 3.72001 11.748 3.72001 10.942C3.72001 10.048 3.97601 9.32598 4.48801 8.77799C5.00001 8.22999 5.67601 7.95599 6.53401 7.95599C7.02601 7.95599 7.41201 8.04599 7.79401 8.22199L7.79001 9.18398ZM13.098 12.878C12.608 13.408 11.95 13.672 11.126 13.672C10.32 13.672 9.67801 13.414 9.19801 12.902C8.71801 12.39 8.47801 11.714 8.47801 10.874C8.47801 9.97198 8.72601 9.26198 9.22201 8.73999C9.71801 8.21999 10.392 7.95799 11.242 7.95799C12.05 7.95799 12.684 8.20999 13.144 8.70999C13.604 9.21198 13.832 9.90398 13.832 10.788C13.834 11.654 13.588 12.348 13.098 12.878ZM16.224 13.26V13.46H14.456V13.178L15.32 12.414C15.538 12.204 15.72 12.036 15.794 11.912C15.868 11.79 15.922 11.662 15.922 11.53C15.922 11.38 15.888 11.266 15.802 11.184C15.716 11.104 15.552 11.064 15.388 11.064C15.146 11.064 14.858 11.164 14.658 11.364V11.026C14.86 10.866 15.162 10.786 15.448 10.786C15.692 10.786 15.906 10.85 16.048 10.978C16.19 11.106 16.27 11.278 16.27 11.496C16.27 11.66 16.23 11.82 16.14 11.976C16.05 12.134 15.894 12.334 15.64 12.576L15.038 13.162V13.256L16.224 13.26Z"
          fill="white"/>
</svg>
