<svg width="20" height="18" viewBox="0 0 20 18" fill="none" xmlns="http://www.w3.org/2000/svg">
    <path d="M19.9321 8.00006C19.8343 7.8906 19.6666 7.88238 19.5579 7.97992L19.0378 8.44667L16.2177 5.65038C16.1138 5.54754 15.9463 5.5478 15.8429 5.65197C15.7398 5.75587 15.7403 5.92365 15.8445 6.02675L18.6429 8.80131L17.2575 10.0447L12.6498 5.37764L17.2299 1.04484C17.3362 0.944124 17.341 0.776346 17.2403 0.67006C17.1393 0.563509 16.9718 0.559534 16.8655 0.659458L12.0887 5.17859C12.037 5.22762 12.0071 5.29521 12.0058 5.36651C12.0044 5.43781 12.0323 5.50646 12.0821 5.55735L12.5064 5.98726L11.5716 6.9653L9.76847 6.77314C9.68868 6.7636 9.61049 6.79222 9.55377 6.84841L8.8209 7.57492L7.45854 6.22925L7.91761 5.76435C7.96744 5.71373 7.99527 5.64481 7.99394 5.57351C7.99262 5.50222 7.96293 5.43463 7.91098 5.38559L3.13449 0.866729C3.02847 0.766539 2.86042 0.770515 2.7597 0.877331C2.65899 0.983616 2.66376 1.15139 2.77004 1.25211L5.99333 4.301L1.27303 8.93278L0.442094 8.18719C0.333422 8.08965 0.165645 8.09839 0.0678408 8.20733C-0.0299632 8.31627 -0.0209515 8.48378 0.0879847 8.58158L2.57655 10.8152C2.62691 10.8605 2.69053 10.883 2.75361 10.883C2.82226 10.883 2.89064 10.8565 2.94233 10.8043L3.39318 10.3476L5.87168 12.7922L5.41632 13.2552C5.31427 13.3591 5.3148 13.5256 5.41791 13.6284L6.34718 14.5577C6.34718 14.5577 6.34771 14.558 6.34771 14.5582C6.34771 14.5585 6.34797 14.5588 6.34824 14.5588L7.27777 15.4777L8.20599 16.4062L9.13526 17.3354C9.18694 17.3871 9.2548 17.4131 9.32265 17.4131C9.3905 17.4131 9.45835 17.3871 9.51004 17.3354L9.99084 16.8546L10.4796 17.3368C10.531 17.3877 10.5983 17.4131 10.6657 17.4131C10.7335 17.4131 10.8014 17.3871 10.8531 17.3354L11.5949 16.5936L11.7044 16.703C11.7561 16.7547 11.8239 16.7807 11.8918 16.7807C11.9596 16.7807 12.0275 16.7547 12.0792 16.703L12.8211 15.9612L12.9305 16.0706C12.9822 16.1223 13.0501 16.1483 13.1179 16.1483C13.1858 16.1483 13.2536 16.1223 13.3053 16.0706L14.0472 15.3287L14.1564 15.4379C14.2081 15.4896 14.2759 15.5156 14.3438 15.5156C14.4116 15.5156 14.4795 15.4896 14.5312 15.4379L15.4604 14.5087C15.5641 14.405 15.5641 14.2375 15.4604 14.1339L14.0806 12.754L16.5745 10.108L17.0579 10.5978C17.1096 10.6503 17.178 10.6766 17.2466 10.6766C17.3097 10.6766 17.3733 10.654 17.4237 10.6087L19.9123 8.37511C20.0209 8.27651 20.0299 8.109 19.9321 8.00006ZM6.52688 8.1477C6.52688 8.78726 6.00659 9.3073 5.36728 9.3073C5.11283 9.3073 4.86845 9.22354 4.66914 9.07299L6.29258 7.44928C6.44313 7.64887 6.52688 7.89325 6.52688 8.1477ZM6.66842 7.07344L7.11079 6.63107L7.34987 6.86723L6.8627 7.36606C6.80863 7.26242 6.7437 7.16435 6.66842 7.07344ZM2.74248 10.2517L1.66822 9.28742L6.37872 4.66545L7.3504 5.58465L2.74248 10.2517ZM4.29329 9.44883C4.38712 9.52649 4.48837 9.59302 4.59598 9.64842C4.51196 9.73482 4.42529 9.82468 4.33809 9.91479C4.2326 10.0237 4.12976 10.1295 4.03036 10.2315L3.76876 9.97364L4.29329 9.44883ZM6.24911 13.1641L6.80625 13.7135L6.53245 13.9931L5.97849 13.4392L6.24911 13.1641ZM7.46278 14.9153L6.90909 14.3679L7.18554 14.0878L7.74161 14.6362L7.46278 14.9153ZM8.11905 15.0086L8.67725 15.5591L8.39285 15.8435L7.83836 15.289L8.11905 15.0086ZM9.32238 16.7727L8.7679 16.2183L9.05494 15.9312L9.61314 16.482L9.32238 16.7727ZM14.3435 14.875L14.2343 14.7658L13.1643 13.6958C13.1643 13.6958 13.164 13.6958 13.164 13.6955L12.8388 13.3703C12.7352 13.2666 12.5677 13.2666 12.464 13.3703C12.3604 13.4739 12.3604 13.6414 12.464 13.7451L13.6724 14.9532L13.1179 15.5076L11.613 14.0027C11.5093 13.899 11.3418 13.899 11.2382 14.0027C11.1345 14.1063 11.1345 14.2738 11.2382 14.3775L11.5639 14.7032L12.4463 15.5858L11.8918 16.1403L11.0216 15.2704L10.7123 14.9611C10.7123 14.9611 10.712 14.9611 10.712 14.9608L10.3868 14.6356C10.2832 14.532 10.1157 14.532 10.012 14.6356C9.90841 14.7393 9.90841 14.9068 10.012 15.0104L10.6203 15.6187L11.2202 16.2185L10.6643 16.7743L4.4078 10.6037C4.50825 10.5006 4.61242 10.3932 4.7187 10.2832C4.87482 10.1221 5.02855 9.9633 5.16531 9.82441C5.23211 9.83236 5.29916 9.8374 5.36728 9.8374C6.2992 9.8374 7.05699 9.07935 7.05699 8.1477C7.05699 8.07799 7.05169 8.00907 7.0432 7.94069L7.7273 7.23989L8.4448 7.94838L5.94271 10.4295C5.8889 10.4828 5.86054 10.5565 5.86478 10.6323C5.86903 10.7081 5.90507 10.7781 5.96444 10.8252C6.0262 10.8748 7.47762 11.974 9.99774 9.41994L14.898 14.3205L14.3435 14.875ZM13.7053 12.3784L10.1814 8.85432C10.1308 8.8037 10.068 8.7756 9.98978 8.77666C9.91795 8.77772 9.8501 8.80794 9.8008 8.86015C8.17497 10.5901 7.08588 10.6426 6.59474 10.5292L9.83738 7.31358L11.1088 7.44902L10.918 7.64887C10.8167 7.75462 10.8207 7.9224 10.9262 8.02365C11.032 8.12463 11.1995 8.12119 11.301 8.01517L12.8245 6.42141L16.1681 9.76504L13.7053 12.3784ZM14.1689 4.76908C14.1689 5.22577 14.5405 5.59737 14.9971 5.59737C15.4538 5.59737 15.8254 5.22577 15.8254 4.76908C15.8254 4.3124 15.4538 3.9408 14.9971 3.9408C14.5405 3.9408 14.1689 4.3124 14.1689 4.76908ZM15.2953 4.76908C15.2953 4.93341 15.1615 5.06727 14.9971 5.06727C14.8328 5.06727 14.699 4.93341 14.699 4.76908C14.699 4.60475 14.8328 4.4709 14.9971 4.4709C15.1615 4.4709 15.2953 4.60475 15.2953 4.76908Z"
          fill="white"/>
</svg>
