<svg width="20" height="20" viewBox="0 0 20 20" fill="none" xmlns="http://www.w3.org/2000/svg">
    <path d="M19.4141 18.8281H4.50836C2.66861 18.8281 1.17188 17.3314 1.17188 15.4916C1.17188 13.6517 2.66861 12.155 4.50836 12.155H15.4915C17.9774 12.155 20 10.1324 20 7.64648C20 5.16052 17.9774 3.13812 15.4915 3.13812H10.5397C10.2579 1.362 8.71613 0 6.86188 0H3.72391C3.40027 0 3.13797 0.262299 3.13797 0.585938V1.56906H0.585938C0.262299 1.56906 0 1.83136 0 2.155C0 2.47849 0.262299 2.74094 0.585938 2.74094H3.13797V4.70703H0.585938C0.262299 4.70703 0 4.96933 0 5.29297C0 5.61661 0.262299 5.87891 0.585938 5.87891H3.13797V6.86203C3.13797 7.18552 3.40027 7.44797 3.72391 7.44797H6.86188C8.71613 7.44797 10.2579 6.08597 10.5397 4.31H15.4915C17.3314 4.31 18.8281 5.80673 18.8281 7.64648C18.8281 9.48624 17.3314 10.9831 15.4915 10.9831H4.50836C2.0224 10.9831 0 13.0055 0 15.4916C0 17.9776 2.0224 20 4.50836 20H19.4141C19.7377 20 20 19.7377 20 19.4141C20 19.0904 19.7377 18.8281 19.4141 18.8281ZM6.86188 6.27609H4.30984V1.17188H6.86188C8.2692 1.17188 9.41406 2.31674 9.41406 3.72406C9.41406 5.13123 8.2692 6.27609 6.86188 6.27609Z"
          fill="white"/>
</svg>
