<svg width="30" height="30" viewBox="0 0 30 30" fill="none" xmlns="http://www.w3.org/2000/svg">
    <g clip-path="url(#clip0)">
        <path d="M30 13.5483H9.67742V17.9032C9.67742 19.0006 9.89998 20.0544 10.3156 21.0512L8.14737 21.7741H7.74194V20.8064H0V28.5483H7.74194V27.5806H8.16627L16.9553 29.7779C17.5446 29.9255 18.1515 30 18.7592 30C19.8531 30 20.9536 29.7521 21.9426 29.2843L28.8766 26.0002C29.5587 25.6765 30 24.9793 30 24.224C30 23.3656 29.4431 22.6417 28.6741 22.3747C29.531 21.0493 30 19.4906 30 17.9032V13.5483ZM10.6728 18.3871H12.5806V17.4193H10.6452V16.4516H26.129V15.4838H10.6452V14.5161H29.0323V15.4838H27.0968V16.4516H29.0323V17.4193H13.5484V18.3871H29.0124C28.9205 19.8091 28.4215 21.1426 27.5561 22.2821C27.4273 22.301 27.3 22.3282 27.1766 22.3721L21.7645 24.3053C21.7659 24.2734 21.7742 24.2434 21.7742 24.211C21.7742 23.4233 21.2802 22.7031 20.5447 22.4206L16.3791 20.8185C14.7755 20.2016 12.9861 20.1609 11.3575 20.7043L11.2356 20.745C10.9143 19.9944 10.726 19.2052 10.6728 18.3871ZM6.77419 27.5806H3.87097V22.7419H2.90323V27.5806H0.967742V21.7741H4.83871V26.6129H5.80645V21.7741H6.77419V27.5806ZM29.0323 24.2235C29.0323 24.6072 28.8083 24.9609 28.4617 25.1253L21.5285 28.4094C20.19 29.0433 18.6262 29.1981 17.1899 28.8392L8.34299 26.6273L7.74194 26.6192V22.7419H8.30425L11.6632 21.6222C13.0794 21.1499 14.6371 21.1854 16.0306 21.7219L20.1969 23.324C20.5617 23.4639 20.8065 23.8204 20.8065 24.211C20.8065 24.3889 20.7542 24.554 20.6685 24.6967L20.6439 24.7055L20.6517 24.7272C20.4823 24.9881 20.1896 25.1612 19.8562 25.1612H19.631C19.5096 25.1612 19.3908 25.1386 19.2778 25.0934L14.6957 23.26L14.3366 24.1588L18.9189 25.9915C19.1462 26.0829 19.3858 26.129 19.631 26.129H19.8562C20.4088 26.129 20.9038 25.8904 21.2539 25.5149L27.5017 23.2839C27.6102 23.2451 27.7229 23.2258 27.837 23.2258H28.034C28.5848 23.2258 29.0323 23.6732 29.0323 24.2235Z"
              fill="white"/>
        <path d="M20.3226 8.70974C19.7888 8.70974 19.3548 8.27572 19.3548 7.742H18.3871C18.3871 8.64099 19.0059 9.39255 19.8387 9.60873V10.6452H20.8064V9.60873C21.6393 9.39255 22.2581 8.64099 22.2581 7.742C22.2581 6.67455 21.39 5.80651 20.3226 5.80651C19.7888 5.80651 19.3548 5.3725 19.3548 4.83877C19.3548 4.30505 19.7888 3.87103 20.3226 3.87103C20.8563 3.87103 21.2903 4.30505 21.2903 4.83877H22.2581C22.2581 3.93978 21.6393 3.18822 20.8064 2.97204V1.93555H19.8387V2.97204C19.0059 3.18822 18.3871 3.93978 18.3871 4.83877C18.3871 5.90622 19.2551 6.77426 20.3226 6.77426C20.8563 6.77426 21.2903 7.20828 21.2903 7.742C21.2903 8.27572 20.8563 8.70974 20.3226 8.70974Z"
              fill="white"/>
        <path d="M20.3226 12.5806C23.791 12.5806 26.6129 9.75869 26.6129 6.29032C26.6129 2.82195 23.791 0 20.3226 0C16.8542 0 14.0323 2.82195 14.0323 6.29032C14.0323 9.75869 16.8542 12.5806 20.3226 12.5806ZM20.3226 0.967742C23.2572 0.967742 25.6452 3.35567 25.6452 6.29032C25.6452 9.22497 23.2572 11.6129 20.3226 11.6129C17.3879 11.6129 15 9.22497 15 6.29032C15 3.35567 17.3879 0.967742 20.3226 0.967742Z"
              fill="white"/>
    </g>
    <defs>
        <clipPath id="clip0">
            <rect width="30" height="30" fill="white"/>
        </clipPath>
    </defs>
</svg>
