<svg width="20" height="20" viewBox="0 0 20 20" fill="none" xmlns="http://www.w3.org/2000/svg">
    <g clip-path="url(#clip0)">
        <path d="M9.2356 1.56854L9.66663 1.13755V3.99961C9.66659 4.08802 9.7017 4.17282 9.76425 4.23536C9.82675 4.29786 9.91155 4.33298 9.99999 4.33298C10.0884 4.33302 10.1732 4.2979 10.2357 4.23536C10.2982 4.17286 10.3334 4.08805 10.3334 3.99961V1.13755L10.7644 1.56858C10.8484 1.65366 10.9716 1.68721 11.0871 1.65651C11.2027 1.6258 11.293 1.53553 11.3237 1.41998C11.3544 1.30443 11.3208 1.18126 11.2357 1.09724L10.2359 0.0974451C10.1054 -0.032441 9.89448 -0.032441 9.76401 0.0974451L8.76426 1.0972C8.63609 1.22771 8.63707 1.43709 8.76637 1.56643C8.89567 1.69577 9.10513 1.6967 9.2356 1.56854Z"
              fill="white"/>
        <path d="M15.9024 5.23532L16.3334 4.80433V7.66639C16.3334 7.75479 16.3685 7.8396 16.4311 7.90214C16.4936 7.96464 16.5784 7.99976 16.6668 7.99976C16.7552 7.9998 16.84 7.96468 16.9025 7.90214C16.965 7.83964 17.0002 7.75483 17.0002 7.66639V4.80433L17.4312 5.23535C17.5152 5.32044 17.6384 5.35399 17.7539 5.32329C17.8695 5.29258 17.9598 5.20231 17.9905 5.08676C18.0212 4.97121 17.9876 4.84804 17.9025 4.76401L16.9027 3.76422C16.7722 3.63434 16.5613 3.63434 16.4308 3.76422L15.4311 4.76398C15.3029 4.89449 15.3039 5.10387 15.4332 5.23321C15.5625 5.36255 15.7719 5.36344 15.9024 5.23532Z"
              fill="white"/>
        <path d="M2.56873 5.23532L2.99976 4.80433V7.66639C2.99972 7.75479 3.03484 7.8396 3.09738 7.90214C3.15988 7.96464 3.24469 7.99976 3.33313 7.99976C3.42153 7.9998 3.50633 7.96468 3.56887 7.90214C3.63138 7.83964 3.66649 7.75483 3.66649 7.66639V4.80433L4.09752 5.23535C4.22791 5.36411 4.4378 5.36344 4.56741 5.23387C4.69699 5.1043 4.69765 4.89441 4.5689 4.76398L3.56903 3.76422C3.43852 3.63434 3.22758 3.63434 3.0971 3.76422L2.09739 4.76398C1.96922 4.89449 1.9702 5.10387 2.0995 5.23321C2.2288 5.36255 2.43822 5.36344 2.56873 5.23532Z"
              fill="white"/>
        <path d="M18.2388 15.307C19.1206 14.7554 19.5302 13.6862 19.2427 12.6866C18.9553 11.6869 18.0403 10.9987 17.0001 10.9997C16.9668 10.9997 16.9343 11.0034 16.9013 11.0047C16.6048 10.0169 15.6981 9.33856 14.6668 9.33302C14.6335 9.33302 14.6008 9.33618 14.5678 9.33759C14.2712 8.34998 13.3645 7.67184 12.3334 7.66629C12.3001 7.66629 12.2674 7.66946 12.2344 7.67087C11.9426 6.67994 11.033 5.99957 9.99999 5.99957C8.967 5.99957 8.05737 6.67994 7.76556 7.67087C7.73255 7.66946 7.6999 7.66629 7.66661 7.66629C6.63546 7.6718 5.72879 8.34998 5.43218 9.33759C5.39917 9.33618 5.36652 9.33302 5.33323 9.33302C4.30192 9.33852 3.39514 10.0169 3.09869 11.0047C3.06568 11.0034 3.03322 10.9997 2.99985 10.9997C1.95967 10.9987 1.04469 11.6869 0.75722 12.6866C0.469752 13.6862 0.879372 14.7554 1.76119 15.307C0.883981 15.7674 0.334124 16.6759 0.333069 17.6666V19.3333C0.333499 19.7013 0.631709 19.9996 0.999765 20H19.0002C19.3682 19.9996 19.6665 19.7013 19.6669 19.3333V17.6666C19.6658 16.6759 19.116 15.7674 18.2388 15.307ZM16.3826 11.7882C16.4383 11.7675 16.4951 11.7498 16.5527 11.7352C16.5985 11.7226 16.6428 11.7066 16.6903 11.6978C17.1781 11.6015 17.6835 11.7295 18.0666 12.0465C18.4497 12.3635 18.6701 12.8359 18.6668 13.3332C18.6697 13.9688 18.3109 14.5508 17.7417 14.8335C17.1724 15.1164 16.4919 15.0507 15.9871 14.6644C15.4823 14.2781 15.2413 13.6383 15.3656 13.0149C15.3716 12.9839 15.3824 12.9547 15.3901 12.9243C15.4073 12.8528 15.4292 12.7824 15.4556 12.7137C15.468 12.6829 15.4836 12.6539 15.4977 12.624C15.5277 12.5593 15.5617 12.4968 15.5996 12.4365C15.6166 12.4099 15.6353 12.3847 15.6538 12.3591C15.6961 12.3006 15.7421 12.2447 15.7917 12.1921C15.8126 12.1699 15.8339 12.1482 15.856 12.1272C15.9084 12.078 15.964 12.0321 16.0223 11.99C16.0483 11.971 16.0739 11.9514 16.1012 11.9339C16.1587 11.898 16.2183 11.8656 16.2797 11.8369C16.314 11.8205 16.347 11.8023 16.3826 11.7882ZM14.1356 10.0891C14.1832 10.0732 14.233 10.0623 14.2824 10.0506C14.408 10.0184 14.5371 10.0014 14.6667 9.99975C15.3778 10.0032 16.0094 10.4546 16.2429 11.1262C16.2313 11.1302 16.221 11.1365 16.2095 11.1406C16.1205 11.1726 16.0336 11.21 15.9492 11.2526C15.9308 11.2619 15.9116 11.2698 15.8935 11.2796C15.8102 11.3253 15.7298 11.376 15.6528 11.4315C15.6204 11.4544 15.5889 11.4781 15.5578 11.5026C15.4949 11.5521 15.4345 11.6048 15.3769 11.6605C15.344 11.6923 15.3133 11.7257 15.2824 11.7594C15.2371 11.8088 15.1939 11.8601 15.1528 11.9132C15.1288 11.9443 15.1048 11.9749 15.0824 12.0072C15.0296 12.0833 14.9813 12.1624 14.9379 12.2443C14.9232 12.2722 14.9105 12.3008 14.8969 12.3294C14.8607 12.4047 14.8287 12.482 14.8009 12.5608C14.7935 12.5819 14.7846 12.6022 14.7778 12.6235C14.7466 12.7228 14.7222 12.824 14.7046 12.9265C14.7001 12.9516 14.6966 12.9769 14.693 13.0022C14.6764 13.1118 14.6676 13.2224 14.6667 13.3332C14.6659 13.2223 14.6571 13.1117 14.6405 13.0021C14.6369 12.9768 14.6333 12.9517 14.6289 12.9267C14.6113 12.8241 14.5868 12.7228 14.5556 12.6235C14.5488 12.6022 14.54 12.5819 14.5326 12.5608C14.5048 12.482 14.4727 12.4047 14.4365 12.3294C14.423 12.3009 14.4102 12.2722 14.3955 12.2443C14.3521 12.1624 14.3038 12.0832 14.2509 12.007C14.2286 11.9748 14.2046 11.9443 14.1807 11.9132C14.1396 11.86 14.0964 11.8087 14.051 11.7593C14.0201 11.7256 13.9894 11.6923 13.9565 11.6604C13.899 11.6048 13.8386 11.5521 13.7756 11.5026C13.7445 11.4781 13.7131 11.4545 13.6807 11.4315C13.6036 11.376 13.5232 11.3253 13.44 11.2796C13.4218 11.2698 13.4027 11.2619 13.3842 11.2526C13.2998 11.21 13.2129 11.1726 13.1239 11.1406C13.1131 11.1367 13.1034 11.1308 13.0925 11.127C13.1016 11.1 13.1139 11.0745 13.1244 11.0482C13.1439 10.9966 13.1659 10.946 13.1904 10.8966C13.1985 10.8811 13.2088 10.867 13.2173 10.8518C13.2514 10.7898 13.2895 10.73 13.3312 10.6728L13.3336 10.6699C13.4865 10.4671 13.683 10.3014 13.9086 10.1849C13.9209 10.1787 13.9341 10.1742 13.9465 10.1682C14.0079 10.138 14.071 10.1115 14.1356 10.0891ZM9.28982 11.6604C9.23224 11.6048 9.17185 11.5521 9.10892 11.5026C9.07782 11.4781 9.04641 11.4545 9.01403 11.4315C8.93692 11.376 8.85653 11.3253 8.77324 11.2796C8.75508 11.2698 8.73594 11.2619 8.71746 11.2526C8.63308 11.21 8.54617 11.1726 8.45722 11.1406C8.44636 11.1367 8.43667 11.1308 8.42573 11.127C8.43491 11.1 8.44718 11.0745 8.45773 11.0482C8.47714 10.9966 8.49917 10.946 8.52367 10.8966C8.53175 10.8811 8.54207 10.867 8.55062 10.8518C8.58472 10.7898 8.62277 10.73 8.66449 10.6728L8.66691 10.6699C8.81977 10.4671 9.01626 10.3014 9.24189 10.1849C9.25411 10.1787 9.2674 10.1742 9.27982 10.1682C9.34115 10.138 9.40427 10.1116 9.46885 10.0891C9.51643 10.0732 9.56619 10.0623 9.61561 10.0506C9.65057 10.0421 9.68463 10.031 9.72038 10.0249C9.73295 10.0224 9.74753 10.0212 9.76077 10.0191C9.83866 10.0071 9.91733 10.0007 9.99616 10.0001L10.0049 10.0001C10.0833 10.0008 10.1616 10.0072 10.2391 10.0191C10.2523 10.0212 10.267 10.0224 10.2796 10.0249C10.3153 10.031 10.3494 10.0421 10.3844 10.0506C10.4338 10.0623 10.4836 10.0732 10.5311 10.0891C10.5957 10.1116 10.6588 10.138 10.7202 10.1682C10.7326 10.1742 10.7459 10.1787 10.7581 10.1849C10.9837 10.3014 11.1802 10.4671 11.3331 10.6699L11.3355 10.6728C11.3772 10.73 11.4152 10.7898 11.4494 10.8518C11.4579 10.867 11.4682 10.8811 11.4763 10.8966C11.5008 10.946 11.5228 10.9966 11.5423 11.0482C11.5528 11.0746 11.5651 11.1 11.5743 11.127C11.5633 11.1308 11.5536 11.1367 11.5428 11.1406C11.4538 11.1726 11.3669 11.21 11.2825 11.2526C11.264 11.2619 11.2449 11.2698 11.2267 11.2796C11.1435 11.3253 11.0631 11.376 10.9861 11.4315C10.9536 11.4544 10.9222 11.4781 10.8911 11.5026C10.8281 11.5521 10.7677 11.6048 10.7102 11.6605C10.6773 11.6923 10.6466 11.7257 10.6157 11.7594C10.5704 11.8088 10.5272 11.8601 10.4861 11.9132C10.4621 11.9443 10.4381 11.9749 10.4157 12.0072C10.3629 12.0833 10.3146 12.1624 10.2712 12.2443C10.2565 12.2722 10.2437 12.3008 10.2302 12.3294C10.194 12.4047 10.162 12.482 10.1341 12.5608C10.1268 12.5819 10.1179 12.6022 10.1111 12.6235C10.0799 12.7228 10.0555 12.824 10.0379 12.9265C10.0334 12.9516 10.0299 12.9769 10.0263 13.0022C10.0097 13.1117 10.0009 13.2224 9.99999 13.3332C9.99913 13.2223 9.99035 13.1117 9.97374 13.0021C9.97015 12.9768 9.96659 12.9517 9.96218 12.9267C9.9446 12.8241 9.92011 12.7228 9.88886 12.6235C9.88206 12.6022 9.87323 12.5819 9.86585 12.5608C9.83804 12.482 9.80597 12.4047 9.76983 12.3294C9.75624 12.3009 9.7435 12.2722 9.72877 12.2443C9.68534 12.1624 9.63705 12.0832 9.58416 12.007C9.5619 11.9748 9.53783 11.9443 9.51396 11.9132C9.47291 11.86 9.4297 11.8087 9.38427 11.7593C9.35337 11.7256 9.32267 11.6923 9.28982 11.6604ZM8.67668 14.6583C8.17292 15.0428 7.49466 15.1082 6.92675 14.827C6.35881 14.5459 5.99958 13.9668 5.99989 13.3332C6.00036 13.2263 6.01114 13.1197 6.03204 13.0149C6.03806 12.9839 6.04892 12.9548 6.05661 12.9244C6.07376 12.8528 6.09564 12.7824 6.12212 12.7138C6.13447 12.6829 6.15013 12.6539 6.16423 12.624C6.19415 12.5594 6.22818 12.4968 6.26611 12.4366C6.2831 12.41 6.30181 12.3847 6.32025 12.3592C6.36256 12.3006 6.40861 12.2448 6.45815 12.1921C6.47908 12.1699 6.50037 12.1482 6.52248 12.1273C6.57491 12.078 6.63045 12.0321 6.68874 11.99C6.71483 11.971 6.74042 11.9514 6.76768 11.934C6.82515 11.898 6.88476 11.8657 6.94617 11.837C6.98042 11.8206 7.01343 11.8023 7.04902 11.7882C7.10472 11.7675 7.16152 11.7498 7.21914 11.7353C7.26492 11.7226 7.30926 11.7067 7.35672 11.6978C7.45786 11.678 7.56067 11.6676 7.66372 11.6668H7.66939C7.77248 11.6676 7.87525 11.678 7.97639 11.6978C8.02389 11.7067 8.06819 11.7226 8.11397 11.7353C8.17159 11.7498 8.22838 11.7675 8.28409 11.7882C8.31968 11.8023 8.35269 11.8206 8.38694 11.837C8.44835 11.8657 8.50796 11.8981 8.56543 11.934C8.59269 11.9514 8.61828 11.971 8.64437 11.99C8.70269 12.0321 8.7582 12.078 8.81063 12.1273C8.83278 12.1483 8.85406 12.1699 8.87496 12.1921C8.9245 12.2448 8.97055 12.3006 9.01286 12.3592C9.0313 12.3847 9.05001 12.41 9.067 12.4366C9.10493 12.4968 9.13896 12.5594 9.16888 12.624C9.18302 12.6539 9.19864 12.6829 9.21099 12.7138C9.23747 12.7824 9.25935 12.8528 9.2765 12.9244C9.28419 12.9548 9.29509 12.9839 9.30107 13.0149C9.42248 13.6369 9.18044 14.2739 8.67668 14.6583ZM10.6988 13.0149C10.7049 12.9839 10.7157 12.9548 10.7234 12.9244C10.7406 12.8528 10.7624 12.7824 10.7889 12.7138C10.8013 12.6829 10.8169 12.6539 10.831 12.624C10.861 12.5594 10.895 12.4968 10.9329 12.4366C10.9499 12.41 10.9686 12.3847 10.987 12.3592C11.0294 12.3006 11.0754 12.2448 11.1249 12.1921C11.1459 12.1699 11.1672 12.1482 11.1893 12.1273C11.2417 12.078 11.2973 12.0321 11.3555 11.99C11.3816 11.971 11.4072 11.9514 11.4345 11.934C11.4919 11.898 11.5516 11.8657 11.613 11.837C11.6472 11.8206 11.6802 11.8023 11.7158 11.7882C11.7715 11.7675 11.8283 11.7498 11.8859 11.7353C11.9317 11.7226 11.9761 11.7067 12.0235 11.6978C12.1239 11.6782 12.2258 11.6679 12.3281 11.6671L12.3379 11.667C12.4404 11.6678 12.5426 11.6782 12.6432 11.6978C12.6907 11.7067 12.735 11.7226 12.7808 11.7353C12.8384 11.7498 12.8952 11.7675 12.9509 11.7882C12.9865 11.8023 13.0195 11.8206 13.0537 11.837C13.1151 11.8657 13.1748 11.8981 13.2322 11.934C13.2595 11.9514 13.2851 11.971 13.3112 11.99C13.3695 12.0321 13.425 12.078 13.4774 12.1273C13.4996 12.1483 13.5208 12.1699 13.5418 12.1921C13.5913 12.2448 13.6374 12.3006 13.6797 12.3592C13.6981 12.3847 13.7168 12.41 13.7338 12.4366C13.7717 12.4968 13.8058 12.5594 13.8357 12.624C13.8498 12.6539 13.8654 12.6829 13.8778 12.7138C13.9043 12.7824 13.9261 12.8528 13.9433 12.9244C13.951 12.9548 13.9619 12.9839 13.9679 13.0149C14.0893 13.637 13.8473 14.274 13.3435 14.6585C12.8397 15.043 12.1614 15.1084 11.5935 14.8273C11.0255 14.546 10.6663 13.967 10.6666 13.3332C10.6671 13.2263 10.6779 13.1197 10.6988 13.0149ZM11.802 8.42241C11.8499 8.40639 11.9 8.39534 11.9499 8.38366C12.0752 8.35166 12.204 8.33467 12.3334 8.33307C13.0446 8.33639 13.6763 8.788 13.9096 9.45989C13.895 9.46486 13.8816 9.47204 13.8672 9.47728C13.8347 9.48927 13.8032 9.5031 13.7714 9.5165C13.3584 9.68752 13.0037 9.97417 12.7497 10.342C12.7403 10.3557 12.7313 10.3697 12.7221 10.3836C12.6907 10.4312 12.6596 10.4787 12.6317 10.5286C12.5974 10.5895 12.5658 10.6521 12.5369 10.7163C12.5242 10.7448 12.5137 10.7744 12.5022 10.8036C12.4814 10.8554 12.4621 10.9077 12.445 10.9613C12.4407 10.975 12.4344 10.9879 12.4304 11.0018C12.4111 11.001 12.3915 11.0021 12.3719 11.0018C12.359 11.0015 12.3464 10.9998 12.3334 10.9998C12.3204 10.9998 12.3078 11.0015 12.2948 11.0018C12.2752 11.0021 12.2556 11.001 12.2364 11.0018C12.2323 10.9879 12.226 10.975 12.2217 10.9613C12.2046 10.9077 12.1854 10.8553 12.1645 10.8036C12.153 10.7744 12.1425 10.7448 12.1299 10.7163C12.101 10.6521 12.0693 10.5895 12.0349 10.5285C12.0071 10.4786 11.9761 10.4312 11.9448 10.3837C11.9355 10.3698 11.9266 10.3557 11.917 10.3421C11.6632 9.97428 11.3085 9.68767 10.8956 9.51665C10.8637 9.50322 10.8321 9.48935 10.7996 9.47732C10.7858 9.47232 10.773 9.46544 10.7591 9.46072C10.7679 9.43478 10.7797 9.41036 10.7898 9.38505C10.8096 9.33224 10.8321 9.28048 10.8572 9.22993C10.8651 9.21489 10.875 9.20126 10.8833 9.18649C10.9176 9.1241 10.9558 9.06399 10.9977 9.00648L11.0005 9.00313C11.1532 8.8005 11.3495 8.63487 11.575 8.51846C11.5879 8.51186 11.6018 8.50714 11.615 8.50089C11.6755 8.47089 11.738 8.44471 11.802 8.42241ZM9.99999 6.66635C10.7123 6.66635 11.3457 7.11921 11.5762 7.79313C11.5616 7.79809 11.5482 7.80528 11.5338 7.81052C11.5014 7.82251 11.4698 7.83634 11.438 7.84974C11.0251 8.02076 10.6703 8.3074 10.4164 8.67527C10.4069 8.68894 10.3979 8.70296 10.3887 8.71683C10.3573 8.76441 10.3263 8.81191 10.2984 8.86183C10.264 8.92273 10.2324 8.98531 10.2035 9.04953C10.1908 9.07805 10.1803 9.10762 10.1688 9.13676C10.148 9.18856 10.1287 9.24094 10.1116 9.2945C10.1073 9.30825 10.101 9.3211 10.097 9.33497C10.0651 9.33368 10.0328 9.33302 9.99999 9.33302C9.9671 9.33302 9.93487 9.33368 9.903 9.33497C9.8989 9.3211 9.89265 9.30825 9.88835 9.2945C9.87124 9.24094 9.85198 9.18856 9.83116 9.13676C9.8196 9.10762 9.80917 9.07801 9.79651 9.04953C9.7676 8.98527 9.73596 8.92265 9.70155 8.86168C9.67373 8.81183 9.64268 8.76437 9.61139 8.71691C9.60217 8.703 9.59319 8.68894 9.58365 8.67527C9.32978 8.30748 8.97508 8.02087 8.56222 7.84985C8.53031 7.83642 8.49874 7.82255 8.4662 7.81052C8.45179 7.80528 8.43839 7.79813 8.42386 7.79317C8.65425 7.11921 9.28771 6.66635 9.99999 6.66635ZM7.66657 8.33303C7.79595 8.33463 7.92467 8.35162 8.05002 8.38362C8.09987 8.39534 8.14998 8.40635 8.19792 8.42237C8.26182 8.44467 8.32433 8.47085 8.38507 8.50077C8.3982 8.50702 8.41218 8.51178 8.42507 8.51835C8.65047 8.63476 8.8468 8.80039 8.9995 9.00297L9.00231 9.00633C9.04423 9.06383 9.08247 9.12395 9.11673 9.18633C9.12497 9.2011 9.13497 9.21473 9.14282 9.22977C9.1679 9.28028 9.1904 9.33208 9.21025 9.38489C9.22029 9.41024 9.23212 9.43462 9.24095 9.46056C9.22701 9.46532 9.21419 9.47216 9.20036 9.4772C9.16794 9.48919 9.13642 9.50302 9.10462 9.51642C8.69164 9.68744 8.33686 9.97409 8.08295 10.3419C8.07346 10.3556 8.06448 10.3696 8.05526 10.3835C8.02389 10.4311 7.99283 10.4786 7.96494 10.5286C7.9306 10.5895 7.89896 10.652 7.87006 10.7163C7.8574 10.7448 7.84693 10.7743 7.83541 10.8035C7.81462 10.8553 7.79533 10.9077 7.77822 10.9612C7.77388 10.975 7.76763 10.9878 7.76357 11.0017C7.73169 11.0004 7.69947 10.9998 7.66657 10.9998C7.63368 10.9998 7.60146 11.0004 7.56958 11.0017C7.56548 10.9879 7.55923 10.975 7.55493 10.9613C7.53782 10.9077 7.51856 10.8553 7.49774 10.8035C7.48618 10.7744 7.47575 10.7448 7.46309 10.7163C7.43419 10.652 7.40254 10.5894 7.36813 10.5284C7.34032 10.4786 7.30926 10.4311 7.27797 10.3837C7.26875 10.3698 7.25977 10.3557 7.25024 10.342C6.99636 9.97424 6.64167 9.68763 6.2288 9.51661C6.19689 9.50318 6.16533 9.48931 6.13279 9.47728C6.11837 9.47204 6.10497 9.46489 6.09044 9.45993C6.32365 8.78796 6.95538 8.33635 7.66657 8.33303ZM3.75698 11.1262C3.99035 10.4545 4.62204 10.003 5.33319 9.99975C5.46218 10.0014 5.59051 10.0182 5.71555 10.0501C5.7659 10.0619 5.81645 10.073 5.86485 10.0892C5.9277 10.1112 5.98915 10.1369 6.04892 10.1663C6.0631 10.173 6.07818 10.1782 6.09212 10.1853C6.31572 10.3009 6.51065 10.465 6.66272 10.6656C6.66487 10.6684 6.66741 10.6709 6.66952 10.6738C6.71014 10.7297 6.74725 10.788 6.78065 10.8485C6.78999 10.865 6.80116 10.8804 6.80991 10.8972C6.83511 10.9452 6.85456 10.9964 6.87503 11.047C6.88573 11.0738 6.89816 11.0997 6.90749 11.1271C6.89655 11.1308 6.88687 11.1367 6.87601 11.1406C6.78706 11.1727 6.70014 11.2101 6.61577 11.2527C6.59729 11.2619 6.57811 11.2698 6.55998 11.2796C6.47674 11.3253 6.39639 11.376 6.31931 11.4315C6.28689 11.4545 6.25545 11.4781 6.22431 11.5026C6.16138 11.5521 6.10099 11.6048 6.04341 11.6605C6.01056 11.6924 5.97985 11.7257 5.94895 11.7594C5.9036 11.8089 5.8604 11.8602 5.8193 11.9132C5.79539 11.9443 5.77129 11.975 5.74895 12.0072C5.69609 12.0833 5.64785 12.1625 5.60445 12.2443C5.58973 12.2722 5.57699 12.3009 5.5634 12.3294C5.52722 12.4048 5.49519 12.482 5.46738 12.5608C5.46 12.5819 5.45117 12.6022 5.44437 12.6236C5.41316 12.7228 5.3887 12.824 5.37113 12.9265C5.36667 12.9517 5.36312 12.9769 5.35952 13.0023C5.34288 13.1118 5.33409 13.2224 5.33319 13.3332C5.33234 13.2224 5.32355 13.1117 5.30694 13.0021C5.30335 12.9769 5.2998 12.9517 5.29538 12.9267C5.2778 12.8241 5.25331 12.7229 5.22206 12.6236C5.21526 12.6022 5.20643 12.5819 5.19905 12.5608C5.17124 12.482 5.13917 12.4048 5.10303 12.3294C5.08944 12.3009 5.0767 12.2722 5.06198 12.2443C5.01854 12.1624 4.97026 12.0832 4.91736 12.0071C4.8951 11.9748 4.87104 11.9443 4.84717 11.9133C4.80611 11.86 4.76291 11.8087 4.71748 11.7594C4.68658 11.7257 4.65587 11.6923 4.62302 11.6605C4.56544 11.6048 4.50505 11.5521 4.44212 11.5026C4.41102 11.4781 4.37962 11.4545 4.34723 11.4316C4.27012 11.3761 4.18973 11.3253 4.10645 11.2796C4.08828 11.2698 4.06914 11.262 4.05066 11.2527C3.96629 11.2101 3.87937 11.1726 3.79042 11.1406C3.7789 11.1365 3.76859 11.1302 3.75698 11.1262ZM1.33309 13.3332C1.32981 12.8359 1.55017 12.3635 1.9333 12.0465C2.31644 11.7295 2.82176 11.6015 3.30963 11.6978C3.35713 11.7066 3.40143 11.7225 3.44721 11.7352C3.50483 11.7498 3.56163 11.7675 3.61733 11.7882C3.65292 11.8023 3.68593 11.8205 3.72019 11.8369C3.78159 11.8656 3.8412 11.898 3.89867 11.9339C3.92593 11.9514 3.95152 11.971 3.97761 11.99C4.03594 12.0321 4.09145 12.0779 4.14387 12.1272C4.16602 12.1482 4.18727 12.1699 4.20821 12.1921C4.25774 12.2447 4.30379 12.3006 4.3461 12.3591C4.36454 12.3847 4.38325 12.41 4.40024 12.4365C4.43817 12.4968 4.4722 12.5594 4.50212 12.624C4.51626 12.6539 4.53189 12.6829 4.54423 12.7137C4.57071 12.7824 4.59259 12.8528 4.60974 12.9243C4.61743 12.9547 4.62833 12.9839 4.63431 13.0149C4.75572 13.6369 4.51368 14.2739 4.00992 14.6584C3.50616 15.0429 2.82786 15.1083 2.25991 14.8271C1.69197 14.5459 1.33274 13.9669 1.33309 13.3332ZM4.99983 19.3333H0.999726V17.6666C0.999726 16.562 1.89518 15.6665 2.99978 15.6665C4.10438 15.6665 4.99983 16.562 4.99983 17.6666V19.3333ZM4.23844 15.307C4.71896 15.0052 5.0735 14.5391 5.23604 13.9954C5.26858 13.9967 5.29976 13.9998 5.33316 13.9998C5.36656 13.9998 5.39777 13.9967 5.43027 13.9954C5.59281 14.539 5.94735 15.0052 6.42791 15.307C5.96665 15.5502 5.58625 15.9225 5.33316 16.3784C5.0801 15.9226 4.6997 15.5502 4.23844 15.307ZM9.66663 19.3333H5.66652V17.6666C5.66652 16.562 6.56198 15.6665 7.66657 15.6665C8.77117 15.6665 9.66663 16.562 9.66663 17.6666V19.3333ZM8.90524 15.307C9.38576 15.0052 9.7403 14.5391 9.90284 13.9954C9.93538 13.9967 9.96648 13.9999 9.99995 13.9999C10.0334 13.9999 10.0646 13.9967 10.0971 13.9954C10.2596 14.5391 10.6141 15.0052 11.0947 15.307C10.6334 15.5502 10.253 15.9225 9.99995 16.3784C9.74686 15.9226 9.36646 15.5502 8.90524 15.307ZM14.3334 19.3333H10.3333V17.6666C10.3333 16.562 11.2288 15.6665 12.3334 15.6665C13.438 15.6665 14.3334 16.562 14.3334 17.6666V19.3333ZM13.572 15.307C14.0526 15.0052 14.4071 14.5391 14.5696 13.9954C14.6022 13.9967 14.6333 13.9999 14.6668 13.9999C14.7002 13.9999 14.7314 13.9967 14.7639 13.9954C14.9264 14.5391 15.2809 15.0052 15.7615 15.307C15.3002 15.5502 14.9198 15.9225 14.6668 16.3784C14.4137 15.9226 14.0333 15.5502 13.572 15.307ZM19.0002 19.3333H15.0001V17.6666C15.0001 16.562 15.8955 15.6665 17.0001 15.6665C18.1047 15.6665 19.0002 16.562 19.0002 17.6666V19.3333Z"
              fill="white"/>
    </g>
    <defs>
        <clipPath id="clip0">
            <rect width="20" height="20" fill="white"/>
        </clipPath>
    </defs>
</svg>
