<svg width="14" height="15" viewBox="0 0 14 15" fill="none" xmlns="http://www.w3.org/2000/svg">
    <path d="M5.29998 0.899994C2.48631 0.899994 0.199982 3.18632 0.199982 5.99999C0.199982 8.81367 2.48631 11.1 5.29998 11.1C6.41326 11.1 7.44217 10.7414 8.28123 10.1344L12.2281 14.0719L13.0719 13.2281L9.17186 9.31874C9.93826 8.42578 10.4 7.26679 10.4 5.99999C10.4 3.18632 8.11365 0.899994 5.29998 0.899994ZM5.29998 1.49999C7.78904 1.49999 9.79998 3.51093 9.79998 5.99999C9.79998 8.48906 7.78904 10.5 5.29998 10.5C2.81092 10.5 0.799982 8.48906 0.799982 5.99999C0.799982 3.51093 2.81092 1.49999 5.29998 1.49999Z"
          fill="white"/>
</svg>
