<svg width="30" height="30" viewBox="0 0 30 30" fill="none" xmlns="http://www.w3.org/2000/svg">
    <path d="M2.80489 3.07935V8.20125H3.71953V3.99399H21.5854V8.20125H22.5V3.07935H2.80489Z" fill="white"/>
    <path d="M4.20733 1.677V2.59165H22.9878V7.71356H23.9025V1.677H4.20733Z" fill="white"/>
    <path d="M3.29265 10.5793H2.37801V26.494H3.29265V10.5793Z" fill="white"/>
    <path d="M19.2269 22.7402V26.4654H28.1047V22.7402H19.2269ZM27.1901 25.5507H20.1415V23.6548H27.1901V25.5507Z"
          fill="white"/>
    <path d="M26.2195 24.116H21.0976V25.0306H26.2195V24.116Z" fill="white"/>
    <path d="M4.20733 4.48169V8.20121H5.12198V5.39634H10.1886C9.41257 6.07942 8.92167 7.07997 8.92167 8.20121H9.83632C9.83632 6.77674 10.9417 5.55096 12.3561 5.39634H12.9598C14.3743 5.55096 15.4797 6.77674 15.4797 8.20121H16.3943C16.3943 7.08002 15.9035 6.07948 15.1274 5.39634H20.183V8.20121H21.0976V4.48169H4.20733Z"
          fill="white"/>
    <path d="M25.3049 6.79883H24.3902V7.71347H25.3049V6.79883Z" fill="white"/>
    <path d="M26.2421 4.96948H24.3902V5.88413H26.2421C26.7751 5.88413 27.1928 6.28556 27.1949 6.79878H26.2195V7.71343H27.1951V8.20122H28.1098V6.80265C28.1098 5.79179 27.2719 4.96948 26.2421 4.96948Z"
          fill="white"/>
    <path d="M2.3526 8.6891C1.7257 8.6891 1.185 8.2793 0.995918 7.71352H1.89023V6.79887H1.00887C1.20984 6.25395 1.7417 5.86289 2.31709 5.86289V4.94824C1.03658 4.94824 0 5.99068 0 7.27189C0 7.27682 0 7.28168 0 7.2866V26.0079C0 27.2846 1.05539 28.3233 2.3526 28.3233H30V8.6891H2.3526ZM29.0854 27.4086H2.3526C1.55965 27.4086 0.91459 26.7802 0.91459 26.0079V9.10594C1.31098 9.4176 1.81037 9.60369 2.3526 9.60369H29.0854V27.4086Z"
          fill="white"/>
    <path d="M28.1098 20.884H27.1951V21.7987H28.1098V20.884Z" fill="white"/>
    <path d="M26.7073 20.884H25.7927V21.7987H26.7073V20.884Z" fill="white"/>
    <path d="M25.3049 20.884H24.3902V21.7987H25.3049V20.884Z" fill="white"/>
</svg>
